{"title":"Choose 2011 DVDrip English Klam","uid":6626277,"size":1423688505,"categoryP":"video","categoryS":"movies","magnet":"?xt=urn:btih:f345d0f78469905dd56aadf8edf92940e50bf8f2&amp;dn=Choose+2011+DVDrip+English+Klam&amp;tr=udp%3A%2F%2Ftracker.openbittorrent.com%3A80&amp;tr=udp%3A%2F%2Fopen.demonii.com%3A1337&amp;tr=udp%3A%2F%2Ftracker.coppersurfer.tk%3A6969&amp;tr=udp%3A%2F%2Fexodus.desync.com%3A6969","seeders":0,"leechers":1,"uploader":"Klambake","files":-1,"time":1314179371,"description":"[img] http://img703.imageshack.us/img703/8707/62388.jpg[/img]\n\nWith: Katheryn Winnick, Nicholas Tucci en Kevin Pollak\n\nDe tiener Sara wordt wakker nadat een vlaag koude wind haar slaapkamerdeur open doet waaien. Aan de andere kant van de hal ligt de slaapkamer van haar ouders, waarvan de deur op een kier staat. Sara roept hen, maar krijgt geen antwoord. Ze ziet dat haar ouders vastgebonden en gekneveld zijn. Voordat ze hierop kan reageren, wordt ze bij haar haren vastgegrepen. Een stem zegt haar te kiezen voor de dood van ÃƒÂ©ÃƒÂ©n van haar ouders. Als ze niet kan kiezen zullen beide ouders sterven.\n\nA journalism student tracks a killer with the help of her detective father and a therapist. \n\n------------------ Dutch Friends ------------------\nYou can find my Friends at: http://www.Film-Test.nl \n------ They got my dutchs subs ---- and more ------\n\nGeneral:\n\nComplete name                    : Choose\\choose.avi\nFormat                           : AVI\nFormat/Info                      : Audio Video Interleave\nFile size                        : 1.32 GiB\nDuration                         : 1h 26mn\nOverall bit rate                 : 2 196 Kbps\n\nVideo:\n\nFormat                           : MPEG-4 Visual\nFormat profile                   : Simple@L3\nFormat settings, BVOP            : No\nFormat settings, QPel            : No\nFormat settings, GMC             : No warppoints\nFormat settings, Matrix          : Default (H.263)\nCodec ID                         : XVID\nCodec ID/Hint                    : XviD\nDuration                         : 1h 26mn\nBit rate                         : 1 737 Kbps\nWidth                            : 720 pixels\nHeight                           : 304 pixels\nDisplay aspect ratio             : 2.35:1\nFrame rate                       : 23.976 fps\nColor space                      : YUV\nChroma subsampling               : 4:2:0\nBit depth                        : 8 bits\nScan type                        : Progressive\nBits/(Pixel*Frame)               : 0.331\nStream size                      : 1.05 GiB (79%)\nWriting library                  : XviD 1.1.2 (UTC 2006-11-01)\n\nAudio:\n\nFormat                           : AC-3\nFormat/Info                      : Audio Coding 3\nMode extension                   : CM (complete main)\nCodec ID                         : 2000\nDuration                         : 1h 26mn\nBit rate mode                    : Constant\nBit rate                         : 448 Kbps\nChannel(s)                       : 6 channels\nChannel positions                : Front: L C R, Side: L R, LFE\nSampling rate                    : 48.0 KHz\nBit depth                        : 16 bits\nStream size                      : 277 MiB (20%)\nAlignment                        : Aligned on interleaves\nInterleave, duration             : 32 ms (0.77 video frame)\nInterleave, preload duration     : 800 ms\n\n\n","torrent":{"xt":"urn:btih:f345d0f78469905dd56aadf8edf92940e50bf8f2","amp;dn":"Choose+2011+DVDrip+English+Klam","amp;tr":["udp%3A%2F%2Ftracker.openbittorrent.com%3A80","udp%3A%2F%2Fopen.demonii.com%3A1337","udp%3A%2F%2Ftracker.coppersurfer.tk%3A6969","udp%3A%2F%2Fexodus.desync.com%3A6969"],"infoHash":"f345d0f78469905dd56aadf8edf92940e50bf8f2","infoHashBuffer":{"type":"Buffer","data":[243,69,208,247,132,105,144,93,213,106,173,248,237,249,41,64,229,11,248,242]},"announce":[],"urlList":[]}}